<svg width="41" height="41" viewBox="0 0 41 41" fill="none" xmlns="http://www.w3.org/2000/svg">
<path fill-rule="evenodd" clip-rule="evenodd" d="M0.390625 10.6982C0.390625 9.41634 1.42978 8.3772 2.71164 8.3772H8.30155C9.58341 8.3772 10.6226 9.41634 10.6226 10.6982V16.2881C10.6226 17.57 9.58341 18.6091 8.30155 18.6091H2.71164C1.42978 18.6091 0.390625 17.57 0.390625 16.2881V10.6982ZM18.4767 10.6982C18.4767 9.41634 19.5159 8.3772 20.7978 8.3772H26.3877C27.6695 8.3772 28.7087 9.41634 28.7087 10.6982V16.2881C28.7087 17.57 27.6695 18.6091 26.3877 18.6091H20.7978C19.5159 18.6091 18.4767 17.57 18.4767 16.2881V10.6982ZM16.8731 22.0945H27.7947C28.2996 22.0945 28.709 21.6852 28.709 21.1802C28.709 20.6752 28.2996 20.2659 27.7947 20.2659H1.30497C0.799986 20.2659 0.390625 20.6752 0.390625 21.1802C0.390625 21.6852 0.799986 22.0945 1.30497 22.0945H12.1743L7.97053 29.3757C7.07719 30.923 8.19387 32.8572 9.98059 32.8572H19.0669C20.8536 32.8572 21.9703 30.923 21.0769 29.3757L16.8731 22.0945Z" fill="url(#paint0_linear_2687_4495)"/>
<defs>
<linearGradient id="paint0_linear_2687_4495" x1="14.5498" y1="8.3772" x2="14.5498" y2="32.8572" gradientUnits="userSpaceOnUse">
<stop stop-color="#78CEFF"/>
<stop offset="1" stop-color="#3F53FF"/>
</linearGradient>
</defs>
</svg>
