<svg width="40" height="40" viewBox="0 0 40 40" fill="none" xmlns="http://www.w3.org/2000/svg">
<path d="M20.4053 28.8785C25.4174 28.8785 29.4805 24.8153 29.4805 19.8032C29.4805 14.7911 25.4174 10.728 20.4053 10.728C15.3932 10.728 11.3301 14.7911 11.3301 19.8032C11.3301 24.8153 15.3932 28.8785 20.4053 28.8785Z" fill="white"/>
<path d="M20.3797 8.78662C14.4108 8.78662 9.57227 13.6254 9.57227 19.5941C9.57227 25.563 14.4108 30.4015 20.3797 30.4015C26.3484 30.4015 31.1869 25.563 31.1869 19.5941C31.1869 13.6258 26.3484 8.78662 20.3797 8.78662ZM14.907 20.1107C14.3558 20.1107 13.909 19.6639 13.909 19.1127C13.909 18.5615 14.3558 18.1147 14.907 18.1147C15.4581 18.1147 15.9053 18.5615 15.9053 19.1127C15.9053 19.6636 15.4581 20.1107 14.907 20.1107ZM16.697 22.4166C16.3737 22.4166 16.1118 22.1548 16.1118 21.8318C16.1118 21.5088 16.3737 21.2466 16.697 21.2466C17.0199 21.2466 17.2818 21.5088 17.2818 21.8318C17.2818 22.1548 17.0199 22.4166 16.697 22.4166ZM21.9631 12.9171C21.9631 12.5941 22.225 12.3323 22.548 12.3323C22.8709 12.3323 23.1331 12.5941 23.1331 12.9171C23.1331 13.2404 22.8709 13.5022 22.548 13.5022C22.225 13.5022 21.9631 13.2404 21.9631 12.9171ZM25.095 22.2443C23.6694 22.2443 22.5137 21.0889 22.5137 19.6629C22.5137 18.2373 23.6694 17.0816 25.095 17.0816C26.521 17.0816 27.6764 18.2373 27.6764 19.6629C27.6761 21.0889 26.5207 22.2443 25.095 22.2443Z" fill="url(#paint0_radial_201_3285)"/>
<path d="M17.771 37.6772V37.7779L17.7559 37.7625L17.7207 37.7276L17.771 37.6772Z" fill="url(#paint1_radial_201_3285)"/>
<path d="M2.36033 17.4403H2.25195L2.30599 17.3862L2.36033 17.4403Z" fill="url(#paint2_radial_201_3285)"/>
<path fill-rule="evenodd" clip-rule="evenodd" d="M21.0097 4.29983L21.0427 4.30122V4.26687L21.4022 3.90745L21.0434 3.54834L21.037 3.55468L19.7045 2.22217L19.3457 2.58097L20.3268 3.56209C12.1812 3.58685 5.46443 9.68411 4.46572 17.5644H5.19721C6.18993 10.0927 12.5697 4.32285 20.3045 4.28718L19.3457 5.24599L19.7045 5.60479L21.0097 4.29983ZM22.4201 3.69077V4.42226C29.891 5.41839 35.6588 11.8009 35.6905 19.5365L34.7201 18.5659L34.3613 18.925L35.6776 20.2413L35.6774 20.2467H35.683L36.0587 20.6224L36.4175 20.2636L36.4173 20.2634L37.7482 18.9325L37.3895 18.5737L36.4156 19.5476C36.3892 11.4059 30.2962 4.69242 22.4201 3.69077ZM5.05304 18.9301L5.0584 18.9247L4.6996 18.5659L3.00195 20.2636L3.36075 20.6224L4.33795 19.6452C4.36034 27.9056 10.6269 34.6974 18.6663 35.5496V34.8203C11.032 33.972 5.09156 27.5116 5.063 19.6576L6.02226 20.6169L6.38106 20.2581L5.07631 18.9534L5.07679 18.9418H5.06478L5.05304 18.9301ZM35.5582 21.6242C34.5698 29.1115 28.1726 34.8931 20.4203 34.9147L21.3889 33.9462L21.0301 33.5874L19.7052 34.9123L19.7045 34.9116L19.3457 35.2704L19.3464 35.2711L19.3457 35.2718L19.7045 35.6306L19.7051 35.6299L21.043 36.9681L21.4018 36.6093L20.4325 35.6397C28.58 35.6119 35.2968 29.509 36.2894 21.6242H35.5582Z" fill="#745DE4"/>
<defs>
<radialGradient id="paint0_radial_201_3285" cx="0" cy="0" r="1" gradientUnits="userSpaceOnUse" gradientTransform="translate(20.3796 19.5942) rotate(1.87371) scale(12.4024 12.4024)">
<stop stop-color="#DDD4FF"/>
<stop offset="0.462156" stop-color="#A28FFA"/>
<stop offset="0.857" stop-color="#6A54DA"/>
</radialGradient>
<radialGradient id="paint1_radial_201_3285" cx="0" cy="0" r="1" gradientUnits="userSpaceOnUse" gradientTransform="translate(17.746 37.7276) scale(0.039789)">
<stop stop-color="white"/>
<stop offset="0.1648" stop-color="#A29DFF"/>
<stop offset="0.4218" stop-color="#635BFF"/>
<stop offset="1" stop-color="#915BFF"/>
</radialGradient>
<radialGradient id="paint2_radial_201_3285" cx="0" cy="0" r="1" gradientUnits="userSpaceOnUse" gradientTransform="translate(2.30613 17.4133) scale(0.042821)">
<stop stop-color="white"/>
<stop offset="0.1648" stop-color="#A29DFF"/>
<stop offset="0.4218" stop-color="#635BFF"/>
<stop offset="1" stop-color="#915BFF"/>
</radialGradient>
</defs>
</svg>
