<svg width="44" height="44" viewBox="0 0 44 44" fill="none" xmlns="http://www.w3.org/2000/svg">
<path d="M24.4614 22C24.4614 23.3591 23.3595 24.461 22.0004 24.461C20.6414 24.461 19.5396 23.3591 19.5396 22C19.5396 20.6409 20.6414 19.539 22.0004 19.539C23.3595 19.539 24.4614 20.6409 24.4614 22Z" fill="white"/>
<path d="M26.1562 14.5625H17.8437C16.0343 14.5625 14.5625 16.0343 14.5625 17.8437V26.1563C14.5625 27.9656 16.0343 29.4375 17.8437 29.4375H26.1562C27.9656 29.4375 29.4375 27.9656 29.4375 26.1563V17.8437C29.4375 16.0343 27.9656 14.5625 26.1562 14.5625ZM22 26.1016C19.7383 26.1016 17.8984 24.2616 17.8984 22C17.8984 19.7383 19.7383 17.8984 22 17.8984C24.2616 17.8984 26.1015 19.7383 26.1015 22C26.1015 24.2616 24.2616 26.1016 22 26.1016ZM26.7031 18.1172C26.25 18.1172 25.8827 17.7499 25.8827 17.2969C25.8827 16.8438 26.25 16.4766 26.7031 16.4766C27.1562 16.4766 27.5234 16.8438 27.5234 17.2969C27.5234 17.7499 27.1562 18.1172 26.7031 18.1172Z" fill="white"/>
<path d="M28.6172 8H15.3828C11.312 8 8 11.312 8 15.3828V28.6172C8 32.688 11.312 36 15.3828 36H28.6172C32.688 36 36 32.688 36 28.6172V15.3828C36 11.312 32.688 8 28.6172 8ZM31.0781 26.1563C31.0781 28.8701 28.8701 31.0781 26.1563 31.0781H17.8437C15.1299 31.0781 12.9219 28.8701 12.9219 26.1563V17.8437C12.9219 15.1299 15.1299 12.9219 17.8437 12.9219H26.1563C28.8701 12.9219 31.0781 15.1299 31.0781 17.8437V26.1563Z" fill="white"/>
</svg>
