<svg width="41" height="41" viewBox="0 0 41 41" fill="none" xmlns="http://www.w3.org/2000/svg">
<path d="M23.9612 10.5616L21.4247 5.26886C21.3683 5.16751 21.2873 5.08335 21.1898 5.02485C21.0923 4.96634 20.9817 4.93555 20.8691 4.93555C20.7565 4.93555 20.6459 4.96634 20.5484 5.02485C20.4509 5.08335 20.3699 5.16751 20.3135 5.26886L17.7765 10.5616C17.7377 10.6427 17.6805 10.7128 17.61 10.7658C17.5394 10.8189 17.4575 10.8535 17.3713 10.8664L11.6996 11.7155C11.585 11.7303 11.477 11.7791 11.3883 11.856C11.2996 11.9329 11.2341 12.0347 11.1995 12.1493C11.1636 12.2606 11.1592 12.3803 11.1868 12.4941C11.2144 12.608 11.2729 12.7112 11.3553 12.7915L15.4588 16.9112C15.5222 16.9748 15.5696 17.0536 15.597 17.1406C15.6243 17.2277 15.6307 17.3203 15.6156 17.4106L14.6456 23.2278C14.6256 23.3431 14.6375 23.462 14.6801 23.5705C14.7227 23.679 14.7941 23.7726 14.886 23.8404C14.98 23.9132 15.0919 23.9568 15.2088 23.966C15.3256 23.9752 15.4426 23.9497 15.5461 23.8925L20.6185 21.1464C20.6954 21.1047 20.7808 21.083 20.8675 21.083C20.9542 21.083 21.0396 21.1047 21.1165 21.1464L26.1889 23.8925C26.2922 23.9501 26.4093 23.9759 26.5263 23.9666C26.6432 23.9574 26.7552 23.9136 26.849 23.8404C26.941 23.7725 27.0125 23.6788 27.055 23.5702C27.0976 23.4616 27.1095 23.3427 27.0893 23.2273L26.1215 17.4117C26.1064 17.3215 26.1129 17.2288 26.1402 17.1417C26.1675 17.0547 26.215 16.9759 26.2783 16.9123L30.3819 12.7926C30.4642 12.7123 30.5227 12.6091 30.5503 12.4953C30.5779 12.3814 30.5735 12.2617 30.5376 12.1504C30.5031 12.0359 30.4376 11.9341 30.3491 11.8572C30.2605 11.7803 30.1525 11.7315 30.0381 11.7166L24.3664 10.8664C24.2802 10.8535 24.1983 10.8189 24.1277 10.7658C24.0571 10.7128 24 10.6427 23.9612 10.5616Z" fill="url(#paint0_linear_2687_4511)"/>
<path d="M22.771 30.6548C22.8209 30.5602 22.8957 30.4825 22.9866 30.4306L24.4943 29.5731L22.9855 28.714C22.8946 28.6621 22.8198 28.5844 22.7699 28.4898L21.9449 26.9218L21.1188 28.491C21.069 28.5855 20.9942 28.6633 20.9033 28.7151L19.3955 29.5731L20.9044 30.4323C20.9953 30.4842 21.07 30.5619 21.1199 30.6565L21.9449 32.2245L22.771 30.6548Z" fill="#3E52FF"/>
<path d="M0.768039 36.2985C0.850779 36.2969 0.930801 36.2675 0.996229 36.2148C1.06166 36.1621 1.109 36.0889 1.13124 36.006C3.07119 29.2724 7.75617 24.2 13.6978 22.355L14.3789 18.2639C10.8094 20.149 7.65582 22.7854 5.11837 26.0057C5.02664 26.1168 4.89674 26.1861 4.75647 26.1988C4.6162 26.2116 4.47671 26.1667 4.36784 26.0739C4.25898 25.981 4.18938 25.8475 4.17395 25.702C4.15852 25.5564 4.19848 25.4104 4.28527 25.2951C6.97426 21.8812 10.3308 19.1014 14.1321 17.1402L11.9491 14.9462C8.33384 17.1627 0.759956 23.2966 0.390827 35.8844C0.389176 35.9374 0.397652 35.9902 0.415763 36.0398C0.433875 36.0894 0.461262 36.1348 0.496342 36.1733C0.531421 36.2118 0.573497 36.2427 0.620133 36.2642C0.666769 36.2857 0.717041 36.2974 0.768039 36.2985Z" fill="url(#paint1_linear_2687_4511)"/>
<path d="M7.68313 6.63458L6.85703 5.06482L6.03094 6.63402C5.98106 6.72855 5.90629 6.80632 5.81539 6.85819L4.30762 7.71621L5.81647 8.57535C5.90736 8.62722 5.98214 8.70499 6.03202 8.79952L6.85703 10.3676L7.68313 8.7984C7.733 8.70387 7.80778 8.6261 7.89868 8.57423L9.40645 7.71621L7.8976 6.85707C7.80732 6.80549 7.73296 6.72834 7.68313 6.63458Z" fill="#77CCFF"/>
<defs>
<linearGradient id="paint0_linear_2687_4511" x1="20.8686" y1="4.93555" x2="20.8686" y2="23.9685" gradientUnits="userSpaceOnUse">
<stop stop-color="#78CEFF"/>
<stop offset="1" stop-color="#3C4FFF"/>
</linearGradient>
<linearGradient id="paint1_linear_2687_4511" x1="14.3789" y1="16.3743" x2="1.6438" y2="36.2985" gradientUnits="userSpaceOnUse">
<stop stop-color="#635BFF"/>
<stop offset="1" stop-color="#0F07B1"/>
</linearGradient>
</defs>
</svg>
