<svg width="41" height="41" viewBox="0 0 41 41" fill="none" xmlns="http://www.w3.org/2000/svg">
<path fill-rule="evenodd" clip-rule="evenodd" d="M12.3455 7.27043C10.6607 8.06405 9.13819 9.17046 7.86016 10.5413C6.43726 12.0675 5.35898 13.8723 4.68567 15.8311L10.4215 14.2942C10.6811 11.8518 11.3258 9.49946 12.3455 7.27043ZM28.3489 9.49065C26.7864 8.13095 24.9502 7.10708 22.9548 6.49677C21.1625 5.9486 19.2908 5.75175 17.4349 5.90687C19.4326 7.32738 21.1671 9.04225 22.613 11.0276L28.3489 9.49065ZM14.9489 6.79191C17.0651 8.07938 18.8966 9.69716 20.4134 11.6156L12.6284 13.7016C12.9828 11.2818 13.76 8.96504 14.9489 6.79191ZM14.3461 34.7374C12.3507 34.1271 10.5145 33.1033 8.95198 31.7436L8.95196 31.7435L14.6878 30.2066C16.1338 32.192 17.8683 33.9068 19.866 35.3273C18.01 35.4825 16.1383 35.2856 14.3461 34.7374ZM16.8931 29.6158C18.4098 31.5343 20.2414 33.1521 22.3574 34.4396C23.5464 32.2664 24.3236 29.9497 24.6779 27.5299L16.8931 29.6158ZM24.9573 33.9633C26.6422 33.1697 28.1647 32.0632 29.4427 30.6924C30.8656 29.1662 31.9439 27.3614 32.6172 25.4026L26.8814 26.9395C26.6218 29.3819 25.9771 31.7343 24.9573 33.9633ZM0.498565 22.395C0.0490295 20.7173 1.04464 18.9928 2.72233 18.5433L31.4096 10.8566C33.0872 10.407 34.8117 11.4026 35.2612 13.0803L36.8061 18.8459C37.2557 20.5236 36.26 22.2481 34.5824 22.6976L5.89513 30.3843C4.21744 30.8339 2.49299 29.8382 2.04345 28.1606L0.498565 22.395ZM11.404 26.2527L12.8781 25.8577L10.8922 18.4465L9.32915 18.8653L10.4898 23.1968L6.61756 19.6039L5.1434 19.9986L7.15079 27.4903L8.71389 27.0715L7.53177 22.6598L11.404 26.2527ZM13.8137 19.3681L16.2936 18.7036L15.8747 17.1404L11.8317 18.2238L12.6202 21.1664L13.039 22.7295L13.8275 25.6721L17.8705 24.5888L17.4517 23.0257L14.9718 23.6902L14.6022 22.3107L16.8992 21.6952L16.4804 20.1321L14.1834 20.7476L13.8137 19.3681ZM23.7499 22.9991L25.2295 22.5918L24.7314 14.9775L23.1166 15.0831L23.3905 19.2683L21.2796 15.767L19.843 16.15L19.7623 20.2379L17.908 16.4678L16.4558 17.1819L19.8332 24.049L21.3137 23.6414L21.4032 19.1065L23.7499 22.9991ZM29.4797 21.5073C30.7504 21.1669 31.6 20.0686 31.5 18.8958C31.4245 18.0118 30.7483 17.0124 29.0767 16.8588C28.2824 16.7858 27.5312 16.676 27.2924 16.6398C27.1188 16.5604 27.0804 16.3971 27.0719 16.3266C27.0598 16.2255 27.0674 15.9681 27.398 15.7634C28.1554 15.2945 29.0871 15.702 29.0964 15.7062L29.0906 15.7035L29.7758 14.2374C29.7063 14.2049 28.0562 13.4525 26.546 14.3875C25.7787 14.8627 25.3645 15.6794 25.4652 16.5191C25.5597 17.308 26.0848 17.9505 26.8357 18.196L26.8966 18.2159L26.9599 18.226C26.9985 18.2321 27.9152 18.3772 28.9288 18.4703C29.1441 18.4901 29.8497 18.5891 29.8875 19.0334C29.9158 19.3646 29.6143 19.7959 29.0609 19.9442C28.4814 20.0994 27.8617 20.0156 27.4031 19.7199L26.5261 21.0799C27.3747 21.6271 28.4512 21.7829 29.4797 21.5073Z" fill="url(#paint0_linear_2687_4472)"/>
<defs>
<linearGradient id="paint0_linear_2687_4472" x1="18.6523" y1="5.85559" x2="18.6523" y2="35.3787" gradientUnits="userSpaceOnUse">
<stop stop-color="#78CEFF"/>
<stop offset="1" stop-color="#3E52FF"/>
</linearGradient>
</defs>
</svg>
