<svg width="41" height="41" viewBox="0 0 41 41" fill="none" xmlns="http://www.w3.org/2000/svg">
<path d="M27.2336 5.47754H21.3996C21.1693 5.47869 20.9444 5.548 20.7534 5.67673C20.5624 5.80547 20.4137 5.98787 20.3262 6.20095C20.2368 6.41344 20.2124 6.64763 20.256 6.87397C20.2996 7.10032 20.4093 7.30867 20.5712 7.47275L22.6714 9.56131L16.7325 15.5003L12.8937 11.6499C12.7853 11.5405 12.6562 11.4537 12.514 11.3945C12.3718 11.3352 12.2193 11.3047 12.0653 11.3047C11.9113 11.3047 11.7588 11.3352 11.6166 11.3945C11.4744 11.4537 11.3454 11.5405 11.2369 11.6499L0.73576 22.151C0.626398 22.2595 0.539596 22.3885 0.48036 22.5307C0.421123 22.6729 0.390625 22.8254 0.390625 22.9794C0.390625 23.1334 0.421123 23.286 0.48036 23.4281C0.539596 23.5703 0.626398 23.6994 0.73576 23.8078C0.844228 23.9172 0.973277 24.004 1.11546 24.0632C1.25765 24.1225 1.41015 24.153 1.56418 24.153C1.71821 24.153 1.87072 24.1225 2.0129 24.0632C2.15509 24.004 2.28414 23.9172 2.3926 23.8078L12.0653 14.1235L15.9041 17.9739C16.0125 18.0832 16.1416 18.17 16.2838 18.2293C16.4259 18.2885 16.5784 18.319 16.7325 18.319C16.8865 18.319 17.039 18.2885 17.1812 18.2293C17.3234 18.17 17.4524 18.0832 17.5609 17.9739L24.3166 11.2065L26.4052 13.3067C26.5142 13.4149 26.6435 13.5004 26.7857 13.5585C26.9278 13.6165 27.08 13.646 27.2336 13.6451C27.3867 13.649 27.5385 13.6171 27.677 13.5517C27.8901 13.4642 28.0725 13.3156 28.2012 13.1245C28.3299 12.9335 28.3992 12.7086 28.4004 12.4783V6.64433C28.4004 6.33488 28.2775 6.0381 28.0586 5.81928C27.8398 5.60047 27.5431 5.47754 27.2336 5.47754Z" fill="url(#paint0_linear_2687_4462)"/>
<path fill-rule="evenodd" clip-rule="evenodd" d="M23.1585 17.9519H27.3473C27.9256 17.9519 28.3945 18.4207 28.3945 18.9991V34.707C28.3945 35.2853 27.9256 35.7542 27.3473 35.7542H23.1585C22.5802 35.7542 22.1113 35.2853 22.1113 34.707V18.9991C22.1113 18.4207 22.5802 17.9519 23.1585 17.9519ZM17.9235 22.1433H13.7347C13.1563 22.1433 12.6875 22.6122 12.6875 23.1905V34.7096C12.6875 35.288 13.1563 35.7568 13.7347 35.7568H17.9235C18.5018 35.7568 18.9707 35.288 18.9707 34.7096V23.1905C18.9707 22.6122 18.5018 22.1433 17.9235 22.1433ZM8.49768 26.3284H4.30891C3.73056 26.3284 3.26172 26.7972 3.26172 27.3756V34.7059C3.26172 35.2843 3.73056 35.7531 4.30891 35.7531H8.49768C9.07603 35.7531 9.54487 35.2843 9.54487 34.7059V27.3756C9.54487 26.7972 9.07603 26.3284 8.49768 26.3284Z" fill="url(#paint1_linear_2687_4462)"/>
<defs>
<linearGradient id="paint0_linear_2687_4462" x1="23.1471" y1="3.91508" x2="0.390626" y2="23.1807" gradientUnits="userSpaceOnUse">
<stop stop-color="#77CCFF"/>
<stop offset="0.704346" stop-color="#291FD6"/>
<stop offset="1" stop-color="#1007B1" stop-opacity="0"/>
</linearGradient>
<linearGradient id="paint1_linear_2687_4462" x1="23.0562" y1="17.9519" x2="23.0562" y2="35.7542" gradientUnits="userSpaceOnUse">
<stop stop-color="#79CFFF"/>
<stop offset="1" stop-color="#1E34F3"/>
</linearGradient>
</defs>
</svg>
