<svg width="40" height="40" viewBox="0 0 40 40" fill="none" xmlns="http://www.w3.org/2000/svg">
<path d="M27.7185 16.4887C28.5468 16.0112 29.3721 15.5354 30.1971 15.059C31.1947 14.4833 32.1915 13.907 33.1891 13.3317C33.4479 13.1823 33.719 13.2383 33.8545 13.4665C33.9944 13.7013 33.9101 13.972 33.6437 14.1257C31.2739 15.4947 28.9037 16.8627 26.5334 18.2313C23.6806 19.8787 20.8285 21.5264 17.9756 23.1731C15.4444 24.634 12.9124 26.0932 10.3812 27.5537C9.30332 28.1759 8.22578 28.7992 7.14824 29.4225C6.71795 29.6714 6.45556 29.5718 6.31092 29.0928C5.75852 27.2685 5.60589 25.4128 5.88972 23.5256C6.6042 18.7706 9.77286 14.9082 14.276 13.3139C16.0477 12.6866 17.8735 12.4569 19.7458 12.6488C22.8131 12.9635 25.4319 14.2253 27.6182 16.3942C27.6484 16.4251 27.6807 16.4534 27.7185 16.4887Z" fill="url(#paint0_radial_201_3271)"/>
<path d="M9.0398 33.6594C7.77183 34.3913 6.5442 35.1 5.3162 35.8086C4.71001 36.1582 4.10492 36.5093 3.49728 36.8571C3.32684 36.9545 3.15203 36.9523 2.99067 36.8346C2.84276 36.7266 2.78389 36.5747 2.81115 36.3941C2.83731 36.2193 2.95215 36.1143 3.09897 36.03C4.15653 35.4223 5.21299 34.8121 6.26945 34.2023C9.54059 32.3133 12.811 30.4235 16.0822 28.5351C19.3319 26.6592 22.5819 24.7846 25.832 22.909C27.0923 22.1818 28.3523 21.4539 29.6123 20.7256C29.9881 20.5086 30.2715 20.6169 30.398 21.028C30.9206 22.7262 31.1216 24.4641 30.8872 26.2245C30.2664 30.8854 27.841 34.283 23.6231 36.3668C21.8267 37.2543 19.8992 37.6392 17.8989 37.5759C14.4918 37.4684 11.5725 36.1971 9.14192 33.8065C9.09831 33.764 9.07069 33.7048 9.0398 33.6594Z" fill="url(#paint1_radial_201_3271)"/>
<circle cx="18.0364" cy="34.2881" r="1.53098" transform="rotate(-25.146 18.0364 34.2881)" fill="white"/>
<circle cx="26.056" cy="28.7782" r="0.892293" transform="rotate(-25.146 26.056 28.7782)" fill="white"/>
<circle cx="25.6651" cy="31.7113" r="0.5" transform="rotate(-25.146 25.6651 31.7113)" fill="white"/>
<path d="M37.1953 6.41699C34.9863 6.41699 33.1953 8.20798 33.1953 10.417C33.1953 8.20798 31.4043 6.41699 29.1953 6.41699C31.4043 6.41699 33.1953 4.62601 33.1953 2.41699C33.1953 4.62601 34.9863 6.41699 37.1953 6.41699Z" fill="white"/>
<path d="M30.1953 10.999C29.0909 10.999 28.1953 11.8941 28.1953 12.999C28.1953 11.8946 27.3002 10.999 26.1953 10.999C27.2997 10.999 28.1953 10.104 28.1953 8.99902C28.1953 10.1034 29.0909 10.999 30.1953 10.999Z" fill="white"/>
<circle cx="9.38652" cy="23.3864" r="1.04237" transform="rotate(-25.146 9.38652 23.3864)" fill="white"/>
<defs>
<radialGradient id="paint0_radial_201_3271" cx="0" cy="0" r="1" gradientUnits="userSpaceOnUse" gradientTransform="translate(19.8358 21.0689) scale(20.2621 20.2621)">
<stop stop-color="#F4E0FF"/>
<stop offset="0.1648" stop-color="#D690FA"/>
<stop offset="0.4218" stop-color="#B961E7"/>
<stop offset="0.857" stop-color="#9432CA"/>
</radialGradient>
<radialGradient id="paint1_radial_201_3271" cx="0" cy="0" r="1" gradientUnits="userSpaceOnUse" gradientTransform="translate(16.8948 29.0994) scale(35.6628 35.6628)">
<stop stop-color="#F4E0FF"/>
<stop offset="0.205892" stop-color="#D48CFA"/>
<stop offset="0.409173" stop-color="#AE42EA"/>
<stop offset="0.857" stop-color="#A300FF"/>
</radialGradient>
</defs>
</svg>
