<svg width="40" height="40" viewBox="0 0 40 40" fill="none" xmlns="http://www.w3.org/2000/svg">
<path d="M32.3977 17.2339C33.3537 17.2344 34.3063 17.2351 35.259 17.235C36.4107 17.2353 37.5622 17.2345 38.7138 17.2351C39.0126 17.2351 39.2194 17.4191 39.2227 17.6846C39.2265 17.9578 39.0181 18.1502 38.7105 18.1501C35.9737 18.1508 33.237 18.1503 30.5 18.1505C27.2057 18.1507 23.9118 18.1516 20.6179 18.1513C17.6953 18.1509 14.773 18.1485 11.8506 18.1478C10.606 18.1477 9.36119 18.1487 8.11638 18.1497C7.61927 18.1501 7.44182 17.9327 7.55606 17.4456C7.98985 15.5894 8.78547 13.9061 9.9749 12.4136C12.9712 8.65291 17.6465 6.89228 22.3435 7.76312C24.1914 8.10573 25.8875 8.81973 27.413 9.92208C29.912 11.7283 31.5491 14.1304 32.358 17.1019C32.3687 17.1437 32.3826 17.1845 32.3977 17.2339Z" fill="url(#paint0_radial_201_3317)"/>
<path d="M7.63942 22.7668C6.17536 22.7667 4.75787 22.7666 3.34006 22.7663C2.64028 22.766 1.94072 22.7675 1.24059 22.7648C1.04429 22.764 0.89399 22.6747 0.813124 22.492C0.738996 22.3246 0.763965 22.1636 0.87788 22.0208C0.987943 21.8825 1.13991 21.849 1.30922 21.8493C2.52891 21.8519 3.74892 21.8517 4.96875 21.8518C8.74618 21.8514 12.5233 21.85 16.3004 21.8502C20.0527 21.8505 23.8046 21.8521 27.557 21.8528C29.0121 21.8532 30.4673 21.8528 31.9226 21.8521C32.3565 21.852 32.5478 22.0876 32.4519 22.5068C32.0553 24.2388 31.3604 25.8443 30.2772 27.2517C27.4092 30.9777 23.6099 32.7074 18.9152 32.4032C16.9158 32.2736 15.054 31.6431 13.3533 30.5882C10.4565 28.7915 8.5639 26.2309 7.65427 22.9453C7.63776 22.8867 7.64346 22.8216 7.63942 22.7668Z" fill="url(#paint1_radial_201_3317)"/>
<defs>
<radialGradient id="paint0_radial_201_3317" cx="0" cy="0" r="1" gradientUnits="userSpaceOnUse" gradientTransform="translate(23.2809 17.2591) rotate(30) scale(20.2621 20.2621)">
<stop stop-color="#D9DBFF"/>
<stop offset="0.208741" stop-color="#9A9EC2"/>
<stop offset="0.4218" stop-color="#797DA7"/>
<stop offset="0.857" stop-color="#676B92"/>
</radialGradient>
<radialGradient id="paint1_radial_201_3317" cx="0" cy="0" r="1" gradientUnits="userSpaceOnUse" gradientTransform="translate(16.7221 22.7452) rotate(30) scale(35.6628 35.6628)">
<stop stop-color="#E9EBFF"/>
<stop offset="0.1648" stop-color="#A2A5CA"/>
<stop offset="0.4218" stop-color="#383B5B"/>
<stop offset="0.857" stop-color="#915BFF"/>
</radialGradient>
</defs>
</svg>
