<svg width="70" height="24" viewBox="0 0 70 24" fill="none" xmlns="http://www.w3.org/2000/svg">
<path d="M36.6022 23.3333H37.9089C38.1267 22.0269 38.7178 20.599 39.7134 19.0495C41.7045 15.9809 45.7178 12.9731 49.1711 12.2743V10.9983C47.46 10.6337 45.78 9.87413 44.1622 8.75C40.8645 6.47135 38.4378 3.06858 37.9089 0H36.6022C36.2911 1.61024 35.5756 3.15972 34.4556 4.73958C32.2467 7.86892 28.7933 10.1779 25.2778 10.9983V12.2743C27.0511 12.6389 28.8556 13.4896 30.6289 14.796C34.2378 17.4392 36.1356 20.7205 36.6022 23.3333Z" fill="url(#paint0_linear_4675_26450)"/>
<path d="M3.68634 15.191H4.11169C4.18258 14.7657 4.375 14.3009 4.69908 13.7965C5.34723 12.7976 6.65365 11.8185 7.77778 11.591V11.1756C7.22078 11.057 6.6739 10.8097 6.14728 10.4438C5.07378 9.70205 4.28385 8.59437 4.11169 7.59549H3.68634C3.58507 8.11965 3.35214 8.62404 2.98756 9.13832C2.26852 10.157 1.14439 10.9086 0 11.1756V11.591C0.577257 11.7097 1.16464 11.9866 1.7419 12.4119C2.91666 13.2723 3.53443 14.3404 3.68634 15.191Z" fill="url(#paint1_linear_4675_26450)"/>
<path d="M65.9086 15.191H66.3339C66.4048 14.7657 66.5972 14.3009 66.9213 13.7965C67.5694 12.7976 68.8759 11.8185 70 11.591V11.1756C69.443 11.057 68.8961 10.8097 68.3695 10.4438C67.296 9.70205 66.5061 8.59437 66.3339 7.59549H65.9086C65.8073 8.11965 65.5744 8.62404 65.2098 9.13832C64.4907 10.157 63.3666 10.9086 62.2222 11.1756V11.591C62.7995 11.7097 63.3869 11.9866 63.9641 12.4119C65.1389 13.2723 65.7567 14.3404 65.9086 15.191Z" fill="url(#paint2_linear_4675_26450)"/>
<defs>
<linearGradient id="paint0_linear_4675_26450" x1="1.4481" y1="5.49993e-08" x2="52.2989" y2="36.9259" gradientUnits="userSpaceOnUse">
<stop offset="0.00448779" stop-color="#8079FF"/>
<stop offset="0.479167" stop-color="#D357FF"/>
<stop offset="1" stop-color="#4E55FF"/>
</linearGradient>
<linearGradient id="paint1_linear_4675_26450" x1="1.4481" y1="5.49993e-08" x2="52.2989" y2="36.9259" gradientUnits="userSpaceOnUse">
<stop offset="0.00448779" stop-color="#8079FF"/>
<stop offset="0.479167" stop-color="#D357FF"/>
<stop offset="1" stop-color="#4E55FF"/>
</linearGradient>
<linearGradient id="paint2_linear_4675_26450" x1="1.4481" y1="5.49993e-08" x2="52.2989" y2="36.9259" gradientUnits="userSpaceOnUse">
<stop offset="0.00448779" stop-color="#8079FF"/>
<stop offset="0.479167" stop-color="#D357FF"/>
<stop offset="1" stop-color="#4E55FF"/>
</linearGradient>
</defs>
</svg>
