<svg width="22" height="23" viewBox="0 0 22 23" fill="none" xmlns="http://www.w3.org/2000/svg">
<path d="M11 22.7623C17.0751 22.7623 22 17.8374 22 11.7623C22 5.68714 17.0751 0.762268 11 0.762268C4.92487 0.762268 0 5.68714 0 11.7623C0 17.8374 4.92487 22.7623 11 22.7623Z" fill="url(#paint0_linear_4958_46218)"/>
<path d="M9.69155 8.44366L15.2778 11.6689C15.6743 11.8978 15.6743 12.4701 15.2778 12.699L9.69155 15.9242C9.29505 16.1532 8.79944 15.867 8.79944 15.4092V8.95877C8.79944 8.50092 9.29508 8.21475 9.69155 8.44366Z" fill="#F2F2F2"/>
<path d="M8.79944 12.2099V15.4088C8.79944 15.8667 9.29508 16.1528 9.69155 15.9239L15.2778 12.6986C15.4673 12.5892 15.5652 12.4013 15.5735 12.2099H8.79944Z" fill="white"/>
<defs>
<linearGradient id="paint0_linear_4958_46218" x1="11" y1="0.762268" x2="11" y2="22.7623" gradientUnits="userSpaceOnUse">
<stop stop-color="#CECBFF"/>
<stop offset="1" stop-color="#9C97FF"/>
</linearGradient>
</defs>
</svg>
