<svg width="45" height="45" viewBox="0 0 45 45" fill="none" xmlns="http://www.w3.org/2000/svg">
<path d="M37.0069 34.8344L31.3819 25.4594C31.2989 25.3194 31.1809 25.2035 31.0396 25.1229C30.8982 25.0424 30.7383 25 30.5756 25H15.5756C15.4129 25 15.253 25.0424 15.1117 25.1229C14.9703 25.2035 14.8523 25.3194 14.7694 25.4594L9.14436 34.8344C9.04582 34.9907 8.9957 35.1728 9.00029 35.3575C9.00488 35.5423 9.06399 35.7216 9.17019 35.8729C9.27638 36.0241 9.42492 36.1406 9.59714 36.2078C9.76936 36.2749 9.95757 36.2896 10.1381 36.25L14.0569 35.4625L15.6412 39.4281C15.7136 39.5991 15.8351 39.7446 15.9903 39.8465C16.1456 39.9483 16.3275 40.0017 16.5131 40C16.6966 40.0033 16.8771 39.9526 17.0321 39.8543C17.187 39.756 17.3098 39.6143 17.385 39.4469L21.8006 29.6875H24.3506L28.785 39.4469C28.8589 39.6114 28.9787 39.751 29.1301 39.8491C29.2814 39.9472 29.4578 39.9996 29.6381 40C29.8227 39.9965 30.0021 39.9385 30.1538 39.8335C30.3056 39.7284 30.423 39.5809 30.4912 39.4094L32.0756 35.4438L36.0131 36.25C36.191 36.2863 36.3756 36.2702 36.5444 36.2036C36.7133 36.137 36.8592 36.0228 36.9645 35.8749C37.0697 35.727 37.1297 35.5517 37.1373 35.3703C37.1448 35.1889 37.0995 35.0093 37.0069 34.8531V34.8344Z" fill="#5390F8"/>
<path d="M36.0514 15.427C36.0516 15.0399 35.9558 14.6588 35.7724 14.3178C35.589 13.9769 35.3239 13.6868 35.0008 13.4735C34.8464 13.3665 34.738 13.2054 34.6971 13.0221C34.6642 12.836 34.7054 12.6445 34.812 12.4885C35.0262 12.1664 35.1583 11.7969 35.1969 11.4121C35.2356 11.0272 35.1795 10.6388 35.0336 10.2805C34.8824 9.91317 34.6404 9.59019 34.3303 9.34183C34.0203 9.09348 33.6522 8.92788 33.2607 8.86055C33.1663 8.83747 33.0774 8.79601 32.9991 8.73853C32.9208 8.68106 32.8545 8.60869 32.8042 8.52559C32.7539 8.44248 32.7205 8.35026 32.7058 8.25422C32.6912 8.15817 32.6957 8.06019 32.719 7.96587C32.7952 7.58707 32.7768 7.19529 32.6654 6.82531C32.5539 6.45533 32.3529 6.11858 32.08 5.84494C31.8072 5.57131 31.4711 5.36925 31.1014 5.2567C30.7318 5.14415 30.3401 5.12458 29.961 5.19974C29.8695 5.21956 29.775 5.22032 29.6832 5.20196C29.5914 5.1836 29.5043 5.14652 29.4275 5.09303C29.2713 4.98789 29.1623 4.8259 29.1238 4.64159C29.0485 4.25774 28.8785 3.8988 28.6292 3.59737C28.3799 3.29595 28.0592 3.0616 27.6963 2.91562C27.3334 2.76964 26.9397 2.71666 26.5511 2.7615C26.1626 2.80633 25.7913 2.94755 25.4712 3.17234C25.3881 3.22399 25.2955 3.25842 25.1988 3.27357C25.1021 3.28873 25.0034 3.28431 24.9084 3.26058C24.8135 3.23685 24.7243 3.19428 24.6461 3.13541C24.568 3.07655 24.5024 3.00257 24.4534 2.91789C24.2378 2.59793 23.9469 2.33584 23.6063 2.15463C23.2656 1.97343 22.8857 1.87866 22.4999 1.87866C22.1141 1.87866 21.7341 1.97343 21.3935 2.15463C21.0529 2.33584 20.762 2.59793 20.5464 2.91789C20.4968 2.99748 20.4309 3.06569 20.3531 3.11803C20.2753 3.17037 20.1873 3.20566 20.0949 3.22159C20.0034 3.24141 19.9088 3.24217 19.817 3.22381C19.7252 3.20545 19.6382 3.16837 19.5614 3.11488C19.2411 2.89667 18.8712 2.76207 18.4856 2.72336C18.0999 2.68466 17.7107 2.74306 17.3534 2.89326C16.9887 3.04631 16.668 3.28779 16.42 3.5959C16.1721 3.90401 16.0049 4.26904 15.9334 4.658C15.9124 4.75351 15.8722 4.84375 15.8152 4.92326C15.7583 5.00277 15.6858 5.06988 15.6021 5.12054C15.5185 5.17119 15.4254 5.20433 15.3285 5.21794C15.2317 5.23156 15.1331 5.22536 15.0387 5.19974C14.6597 5.12458 14.268 5.14415 13.8983 5.2567C13.5287 5.36925 13.1925 5.57131 12.9197 5.84494C12.6469 6.11858 12.4458 6.45533 12.3344 6.82531C12.2229 7.19529 12.2045 7.58707 12.2808 7.96587C12.317 8.15082 12.2787 8.3426 12.1741 8.49939C12.0687 8.65378 11.9063 8.76005 11.7226 8.79488C11.3417 8.86821 10.9849 9.03479 10.6841 9.27973C10.3833 9.52466 10.1479 9.84031 9.99895 10.1985C9.84873 10.5654 9.79258 10.9641 9.83558 11.3583C9.87858 11.7525 10.0194 12.1297 10.2452 12.4557C10.2972 12.5383 10.3321 12.6305 10.3479 12.7268C10.3636 12.8232 10.3599 12.9217 10.337 13.0166C10.314 13.1115 10.2723 13.2008 10.2142 13.2793C10.1562 13.3577 10.083 13.4238 9.99895 13.4735C9.67553 13.6866 9.41006 13.9766 9.22637 14.3175C9.04269 14.6585 8.94653 15.0397 8.94653 15.427C8.94653 15.8143 9.04269 16.1955 9.22637 16.5365C9.41006 16.8775 9.67553 17.1675 9.99895 17.3805C10.1552 17.4857 10.2641 17.6477 10.3026 17.832C10.3352 18.0154 10.2938 18.2042 10.1877 18.3573C9.97359 18.6794 9.84145 19.049 9.80282 19.4338C9.76419 19.8186 9.82025 20.2071 9.96612 20.5653C10.1173 20.9327 10.3593 21.2557 10.6694 21.504C10.9795 21.7524 11.3475 21.918 11.7391 21.9853C11.8334 22.0084 11.9223 22.0498 12.0007 22.1073C12.079 22.1648 12.1452 22.2371 12.1955 22.3203C12.2458 22.4034 12.2793 22.4956 12.2939 22.5916C12.3085 22.6877 12.3041 22.7857 12.2808 22.88C12.1981 23.2611 12.2117 23.6568 12.3203 24.0314C12.4289 24.4059 12.6291 24.7475 12.9028 25.0253C13.1765 25.3031 13.5151 25.5083 13.888 25.6225C14.2609 25.7366 14.6564 25.756 15.0387 25.6789C15.1302 25.6591 15.2248 25.6584 15.3166 25.6767C15.4084 25.6951 15.4954 25.7322 15.5722 25.7856C15.7285 25.8908 15.8374 26.0528 15.8759 26.2371C15.9513 26.6209 16.1213 26.9799 16.3706 27.2813C16.6199 27.5827 16.9406 27.8171 17.3035 27.9631C17.6664 28.109 18.06 28.162 18.4486 28.1172C18.8372 28.0723 19.2084 27.9311 19.5285 27.7063C19.6117 27.6547 19.7043 27.6203 19.801 27.6051C19.8976 27.5899 19.9964 27.5944 20.0913 27.6181C20.1862 27.6418 20.2754 27.6844 20.3536 27.7433C20.4318 27.8021 20.4973 27.8761 20.5464 27.9608C20.762 28.2807 21.0529 28.5428 21.3935 28.724C21.7341 28.9052 22.1141 29 22.4999 29C22.8857 29 23.2656 28.9052 23.6063 28.724C23.9469 28.5428 24.2378 28.2807 24.4534 27.9608C24.5585 27.8046 24.7205 27.6956 24.9048 27.6571C25.0898 27.6209 25.2816 27.6592 25.4384 27.7638C25.7589 27.9813 26.1282 28.1161 26.5135 28.1562C26.8987 28.1963 27.2879 28.1404 27.6464 27.9936C28.0145 27.8343 28.3371 27.5858 28.585 27.2705C28.8329 26.9552 28.9984 26.5831 29.0664 26.1878C29.091 26.0953 29.1339 26.0086 29.1924 25.9327C29.2509 25.8569 29.3239 25.7934 29.4072 25.7461C29.4904 25.6987 29.5823 25.6684 29.6774 25.6569C29.7724 25.6453 29.8689 25.6528 29.961 25.6789C30.3401 25.7541 30.7318 25.7345 31.1014 25.622C31.4711 25.5094 31.8072 25.3074 32.08 25.0337C32.3529 24.7601 32.5539 24.4233 32.6654 24.0534C32.7768 23.6834 32.7952 23.2916 32.719 22.9128C32.6845 22.7279 32.7227 22.5367 32.8257 22.3793C32.9311 22.2249 33.0934 22.1186 33.2771 22.0838C33.6586 22.0119 34.016 21.8458 34.317 21.6007C34.618 21.3556 34.8531 21.0392 35.0008 20.6802C35.151 20.3132 35.2072 19.9145 35.1642 19.5203C35.1212 19.1261 34.9804 18.7489 34.7546 18.423C34.6515 18.2672 34.6144 18.077 34.6513 17.8939C34.6882 17.7108 34.7962 17.5498 34.9516 17.4462L34.4919 16.7649L35.0008 17.4134C35.327 17.1955 35.5938 16.8998 35.7772 16.553C35.9606 16.2063 36.0549 15.8193 36.0514 15.427Z" fill="#4A86EB"/>
<path d="M30.8208 13.1792C30.7441 12.9486 30.5949 12.7477 30.3946 12.6052C30.1942 12.4626 29.953 12.3858 29.7054 12.3856H25.009L23.6471 8.02665C23.5698 7.79655 23.4204 7.5962 23.2202 7.45416C23.0199 7.31213 22.7789 7.23566 22.5317 7.23566C22.2844 7.23566 22.0434 7.31213 21.8431 7.45416C21.6429 7.5962 21.4935 7.79655 21.4163 8.02665L19.9721 12.3856H15.2757C15.0313 12.3903 14.7944 12.4697 14.5982 12.6126C14.4021 12.7555 14.2563 12.9548 14.1813 13.1828C14.1064 13.4107 14.1059 13.6559 14.18 13.8841C14.2541 14.1123 14.3991 14.3122 14.5947 14.4558L18.3636 17.1471L16.9194 21.4945C16.8431 21.7266 16.844 21.9765 16.9221 22.208C17.0002 22.4396 17.1514 22.6408 17.3538 22.7827C17.5538 22.924 17.7941 23 18.0407 23C18.2873 23 18.5276 22.924 18.7276 22.7827L22.4729 20.0914L26.2536 22.7827C26.4535 22.924 26.6939 23 26.9404 23C27.187 23 27.4273 22.924 27.6273 22.7827C27.8297 22.6408 27.9809 22.4396 28.059 22.208C28.1371 21.9765 28.138 21.7266 28.0617 21.4945L26.6175 17.1471L30.3864 14.4558C30.5865 14.3147 30.7361 14.1154 30.8141 13.8862C30.8921 13.6571 30.8944 13.4097 30.8208 13.1792Z" fill="#FADE11"/>
</svg>
