<svg width="66" height="66" viewBox="0 0 66 66" fill="none" xmlns="http://www.w3.org/2000/svg">
<path d="M48.83 48.9965C57.8194 40.0072 57.8194 25.4325 48.83 16.4432C39.8407 7.45382 25.266 7.45382 16.2767 16.4432C7.28731 25.4325 7.28731 40.0072 16.2767 48.9965C25.266 57.9859 39.8407 57.9859 48.83 48.9965Z" fill="url(#paint0_linear_4675_26693)"/>
<path d="M34.759 35.94L33.2007 35.7164L32.5019 34.3189C32.2643 33.8297 31.873 33.8297 31.6354 34.3189L30.9367 35.7164L29.3784 35.94C28.8404 36.0239 28.7216 36.3942 29.1129 36.7716L30.2379 37.8686L29.9724 39.4199C29.8815 39.951 30.196 40.1816 30.6711 39.93L32.0687 39.2312L33.4662 39.93C33.9484 40.1816 34.2628 39.93 34.165 39.4199L33.8995 37.8686L35.0245 36.7716C35.4158 36.3942 35.297 36.0239 34.759 35.94ZM40.447 19.1695H34.3537C34.2291 19.1704 34.1072 19.2046 34.0003 19.2684C33.8934 19.3323 33.8055 19.4236 33.7457 19.5328L29.623 27.0866C30.4284 26.8762 31.2572 26.7682 32.0896 26.7651C33.7448 26.7654 35.3743 27.1734 36.8343 27.9531L41.0828 20.2666C41.1594 20.1574 41.2031 20.0287 41.2089 19.8955C41.2146 19.7623 41.1821 19.6303 41.1153 19.5149C41.0485 19.3996 40.95 19.3058 40.8316 19.2446C40.7132 19.1834 40.5797 19.1573 40.447 19.1695Z" fill="white"/>
<path d="M31.0208 20.8815L30.4059 19.7635C30.3461 19.6543 30.2583 19.563 30.1514 19.4991C30.0445 19.4352 29.9225 19.401 29.798 19.4001H23.7047C23.5822 19.3991 23.4616 19.4303 23.355 19.4906C23.2484 19.5508 23.1595 19.6381 23.0972 19.7435C23.035 19.849 23.0015 19.969 23.0002 20.0914C22.9989 20.2139 23.0298 20.3346 23.0898 20.4413L27.1776 27.8693L31.0208 20.8815ZM32.069 28.4842C30.3868 28.4828 28.7419 28.9804 27.3425 29.914C25.9431 30.8476 24.852 32.1752 24.2073 33.729C23.5626 35.2828 23.3932 36.9929 23.7205 38.643C24.0478 40.2931 24.8572 41.809 26.0463 42.999C27.2353 44.1891 28.7506 44.9997 30.4004 45.3284C32.0502 45.6571 33.7604 45.4891 35.3148 44.8456C36.8691 44.2022 38.1976 43.1122 39.1324 41.7136C40.0671 40.3149 40.5661 38.6705 40.5661 36.9882C40.567 35.8718 40.3479 34.7661 39.9213 33.7344C39.4947 32.7027 38.8689 31.7651 38.0798 30.9754C37.2907 30.1856 36.3537 29.5591 35.3223 29.1316C34.2909 28.7042 33.1854 28.4842 32.069 28.4842ZM32.069 41.9914C31.0775 41.9928 30.1079 41.7 29.2829 41.15C28.4579 40.6 27.8146 39.8176 27.4345 38.9018C27.0545 37.986 26.9546 36.9781 27.1477 36.0055C27.3408 35.033 27.8182 34.1396 28.5193 33.4385C29.2204 32.7374 30.1138 32.2601 31.0863 32.067C32.0588 31.8739 33.0668 31.9737 33.9826 32.3538C34.8983 32.7339 35.6808 33.3771 36.2308 34.2021C36.7807 35.0271 37.0736 35.9967 37.0722 36.9882C37.0722 37.6453 36.9428 38.2959 36.6914 38.9029C36.4399 39.5099 36.0714 40.0614 35.6068 40.526C35.1422 40.9906 34.5907 41.3592 33.9836 41.6106C33.3766 41.862 32.726 41.9914 32.069 41.9914Z" fill="white"/>
<defs>
<linearGradient id="paint0_linear_4675_26693" x1="0" y1="32.7198" x2="32.5533" y2="65.2732" gradientUnits="userSpaceOnUse">
<stop stop-color="#87C0FF"/>
<stop offset="1" stop-color="#495FFF"/>
</linearGradient>
</defs>
</svg>
