<svg width="180" height="50" viewBox="0 0 180 50" fill="none" xmlns="http://www.w3.org/2000/svg">
<path d="M20.6648 13.1031C19.2549 13.808 18.9024 15.8568 20.026 16.9142C21.6121 18.3901 24.1675 17.4429 24.1675 15.328C24.1675 14.3367 23.815 13.6979 22.9559 13.1912C22.1188 12.6625 21.59 12.6404 20.6648 13.1031Z" fill="white"/>
<path d="M27.7107 13.1039C26.8296 13.5445 26.2348 14.7341 26.411 15.7254C26.5872 16.6286 27.6667 17.5979 28.4818 17.5979C28.8122 17.5979 30.905 17.62 33.152 17.664C37.646 17.7081 38.1307 17.8402 38.6594 19.162C38.9678 19.889 38.8356 21.2108 38.395 21.7174C37.6681 22.5986 37.0072 22.6647 27.9751 22.6647H19.2734V28.9431C19.2734 35.6841 19.3395 36.1027 20.419 36.8517C21.2561 37.4465 22.644 37.3143 23.437 36.5653C23.8115 36.2129 24.1199 35.7062 24.1199 35.3978C24.142 35.1334 24.142 33.2389 24.164 31.2122L24.186 27.5332L31.2575 27.4671C37.9765 27.4011 38.373 27.379 39.3643 26.9164C40.9284 26.2115 42.4705 24.6474 43.1754 23.0833C43.7262 21.8496 43.7702 21.5412 43.6821 19.8229C43.616 18.435 43.4618 17.686 43.0873 16.9811C42.3163 15.4611 40.9945 14.2054 39.4745 13.5004C38.1087 12.8616 38.0866 12.8616 33.2622 12.7955C29.1647 12.7514 28.3055 12.7955 27.7107 13.1039Z" fill="white"/>
<rect x="29.1875" y="29.6172" width="4.89081" height="7.60695" rx="2.4454" fill="white"/>
<path d="M58.8073 20.513V21.8175H54.6694V24.6929H57.8955V25.9974H54.6694V30.2616H53.0703V20.513H58.8073Z" fill="white"/>
<path d="M63.2769 20.513V26.7268C63.2769 27.4656 63.4686 28.022 63.852 28.396C64.2447 28.7701 64.7871 28.9571 65.4791 28.9571C66.1804 28.9571 66.7228 28.7701 67.1062 28.396C67.4989 28.022 67.6953 27.4656 67.6953 26.7268V20.513H69.2944V26.6988C69.2944 27.4936 69.1214 28.1669 68.7754 28.7186C68.4294 29.2704 67.9665 29.6818 67.3867 29.953C66.807 30.2242 66.1664 30.3598 65.4651 30.3598C64.7637 30.3598 64.1232 30.2242 63.5434 29.953C62.973 29.6818 62.5194 29.2704 62.1828 28.7186C61.8462 28.1669 61.6778 27.4936 61.6778 26.6988V20.513H63.2769Z" fill="white"/>
<path d="M80.7883 30.2616H79.1893L74.3781 22.9817V30.2616H72.779V20.4989H74.3781L79.1893 27.7648V20.4989H80.7883V30.2616Z" fill="white"/>
<path d="M87.475 20.513C88.5129 20.513 89.42 20.714 90.1962 21.1161C90.9817 21.5089 91.5848 22.0793 92.0056 22.8274C92.4358 23.5661 92.6508 24.4311 92.6508 25.4223C92.6508 26.4136 92.4358 27.2739 92.0056 28.0033C91.5848 28.7327 90.9817 29.2937 90.1962 29.6865C89.42 30.0699 88.5129 30.2616 87.475 30.2616H84.2909V20.513H87.475ZM87.475 28.9571C88.6158 28.9571 89.4901 28.6485 90.098 28.0313C90.7058 27.4141 91.0097 26.5445 91.0097 25.4223C91.0097 24.2908 90.7058 23.4072 90.098 22.7713C89.4901 22.1354 88.6158 21.8175 87.475 21.8175H85.8899V28.9571H87.475Z" fill="white"/>
<path d="M97.2374 20.513V30.2616H95.6383V20.513H97.2374Z" fill="white"/>
<path d="M108.749 30.2616H107.15L102.339 22.9817V30.2616H100.739V20.4989H102.339L107.15 27.7648V20.4989H108.749V30.2616Z" fill="white"/>
<path d="M119.307 23.3183C119.054 22.8321 118.704 22.4674 118.255 22.2242C117.806 21.9717 117.287 21.8455 116.698 21.8455C116.053 21.8455 115.477 21.9904 114.973 22.2803C114.468 22.5702 114.07 22.9817 113.78 23.5147C113.5 24.0477 113.359 24.6649 113.359 25.3662C113.359 26.0676 113.5 26.6894 113.78 27.2318C114.07 27.7648 114.468 28.1763 114.973 28.4661C115.477 28.756 116.053 28.901 116.698 28.901C117.567 28.901 118.273 28.6578 118.816 28.1716C119.358 27.6853 119.69 27.0261 119.812 26.1938H116.151V24.9174H121.523V26.1658C121.42 26.9232 121.149 27.6199 120.709 28.2557C120.279 28.8916 119.714 29.4013 119.012 29.7847C118.32 30.1587 117.549 30.3457 116.698 30.3457C115.781 30.3457 114.944 30.1353 114.187 29.7145C113.43 29.2844 112.826 28.6906 112.378 27.9331C111.938 27.1757 111.718 26.3201 111.718 25.3662C111.718 24.4124 111.938 23.5568 112.378 22.7993C112.826 22.0419 113.43 21.4528 114.187 21.032C114.954 20.6018 115.791 20.3867 116.698 20.3867C117.736 20.3867 118.657 20.6439 119.461 21.1582C120.275 21.6632 120.864 22.3832 121.228 23.3183H119.307Z" fill="white"/>
<path d="M136.366 23.4165C136.366 23.9121 136.249 24.3797 136.016 24.8192C135.782 25.2587 135.408 25.6187 134.893 25.8992C134.379 26.1704 133.72 26.306 132.916 26.306H131.148V30.2616H129.549V20.513H132.916C133.664 20.513 134.295 20.6439 134.809 20.9057C135.333 21.1582 135.721 21.5042 135.973 21.9437C136.235 22.3832 136.366 22.8741 136.366 23.4165ZM132.916 25.0015C133.523 25.0015 133.977 24.8659 134.276 24.5948C134.575 24.3142 134.725 23.9215 134.725 23.4165C134.725 22.3505 134.122 21.8175 132.916 21.8175H131.148V25.0015H132.916Z" fill="white"/>
<path d="M140.893 20.513V30.2616H139.294V20.513H140.893Z" fill="white"/>
<path d="M151.212 23.4165C151.212 23.9121 151.095 24.3797 150.861 24.8192C150.628 25.2587 150.254 25.6187 149.739 25.8992C149.225 26.1704 148.566 26.306 147.762 26.306H145.994V30.2616H144.395V20.513H147.762C148.51 20.513 149.141 20.6439 149.655 20.9057C150.179 21.1582 150.567 21.5042 150.819 21.9437C151.081 22.3832 151.212 22.8741 151.212 23.4165ZM147.762 25.0015C148.369 25.0015 148.823 24.8659 149.122 24.5948C149.421 24.3142 149.571 23.9215 149.571 23.4165C149.571 22.3505 148.968 21.8175 147.762 21.8175H145.994V25.0015H147.762Z" fill="white"/>
<path d="M157.352 30.3598C156.697 30.3598 156.108 30.2476 155.585 30.0231C155.061 29.7893 154.65 29.4621 154.35 29.0412C154.051 28.6204 153.901 28.1295 153.901 27.5684H155.613C155.65 27.9892 155.814 28.3352 156.104 28.6064C156.403 28.8776 156.819 29.0132 157.352 29.0132C157.904 29.0132 158.334 28.8823 158.642 28.6204C158.951 28.3493 159.105 28.0033 159.105 27.5825C159.105 27.2552 159.007 26.9887 158.811 26.7829C158.624 26.5772 158.385 26.4182 158.095 26.306C157.815 26.1938 157.422 26.0722 156.917 25.9413C156.281 25.773 155.762 25.6047 155.36 25.4364C154.967 25.2587 154.631 24.9875 154.35 24.6228C154.07 24.2581 153.929 23.7719 153.929 23.164C153.929 22.603 154.07 22.112 154.35 21.6912C154.631 21.2704 155.024 20.9478 155.529 20.7234C156.034 20.4989 156.618 20.3867 157.282 20.3867C158.226 20.3867 158.998 20.6252 159.596 21.1021C160.204 21.5696 160.541 22.2149 160.606 23.0378H158.839C158.811 22.6824 158.642 22.3785 158.334 22.126C158.025 21.8736 157.619 21.7473 157.114 21.7473C156.655 21.7473 156.281 21.8642 155.991 22.098C155.702 22.3318 155.557 22.6684 155.557 23.1079C155.557 23.4072 155.645 23.655 155.823 23.8513C156.01 24.0384 156.244 24.188 156.524 24.3002C156.805 24.4124 157.188 24.534 157.675 24.6649C158.32 24.8426 158.844 25.0202 159.246 25.1979C159.657 25.3756 160.003 25.6514 160.284 26.0255C160.574 26.3902 160.718 26.8811 160.718 27.4983C160.718 27.9939 160.583 28.4615 160.312 28.901C160.05 29.3405 159.662 29.6958 159.147 29.967C158.642 30.2288 158.044 30.3598 157.352 30.3598Z" fill="white"/>
</svg>
