<svg width="25" height="25" viewBox="0 0 25 25" fill="none" xmlns="http://www.w3.org/2000/svg">
<path d="M20.4705 5.53861C19.0046 4.88638 17.4326 4.40581 15.789 4.13055C15.759 4.12524 15.7291 4.13852 15.7137 4.16505C15.5115 4.51376 15.2876 4.96862 15.1308 5.32617C13.363 5.06951 11.6042 5.06951 9.87261 5.32617C9.71574 4.96069 9.48367 4.51376 9.28058 4.16505C9.26517 4.13939 9.23526 4.12611 9.20534 4.13055C7.56263 4.4049 5.99064 4.88546 4.52375 5.53861C4.51104 5.54393 4.50017 5.55277 4.49294 5.56427C1.5112 9.884 0.69434 14.0976 1.09504 18.2589C1.09684 18.2792 1.10866 18.2987 1.12496 18.3111C3.09223 19.712 4.99791 20.5625 6.86814 21.1263C6.89806 21.1351 6.92977 21.1246 6.94882 21.1006C7.39121 20.5148 7.78558 19.8971 8.12371 19.2474C8.14365 19.2094 8.12461 19.1642 8.08382 19.1492C7.45828 18.9191 6.86266 18.6385 6.28968 18.32C6.24435 18.2943 6.24072 18.2315 6.28245 18.2014C6.40302 18.1138 6.52363 18.0226 6.63877 17.9305C6.65961 17.9137 6.68863 17.9102 6.71312 17.9208C10.4772 19.5873 14.5523 19.5873 18.272 17.9208C18.2965 17.9093 18.3255 17.9129 18.3472 17.9296C18.4624 18.0217 18.583 18.1137 18.7044 18.2013C18.7461 18.2314 18.7434 18.2943 18.6981 18.3199C18.1251 18.6447 17.5295 18.9191 16.9031 19.1483C16.8623 19.1633 16.8441 19.2094 16.8641 19.2474C17.2095 19.8961 17.6039 20.5138 18.0381 21.0997C18.0563 21.1245 18.0889 21.1351 18.1188 21.1263C19.9981 20.5625 21.9038 19.712 23.871 18.311C23.8883 18.2987 23.8992 18.2801 23.901 18.2597C24.3806 13.4488 23.0977 9.26979 20.5004 5.56514C20.4941 5.55277 20.4832 5.54393 20.4705 5.53861ZM8.68591 15.725C7.55266 15.725 6.61887 14.7162 6.61887 13.4771C6.61887 12.2381 7.53451 11.2292 8.68591 11.2292C9.84628 11.2292 10.771 12.247 10.7529 13.4771C10.7529 14.7162 9.83721 15.725 8.68591 15.725ZM16.3283 15.725C15.1951 15.725 14.2613 14.7162 14.2613 13.4771C14.2613 12.2381 15.177 11.2292 16.3283 11.2292C17.4888 11.2292 18.4135 12.247 18.3954 13.4771C18.3954 14.7162 17.4888 15.725 16.3283 15.725Z" fill="white"/>
</svg>
