<svg width="34" height="34" viewBox="0 0 34 34" fill="none" xmlns="http://www.w3.org/2000/svg">
<path d="M3.10301 15.5921C2.51286 15.9667 2.33806 16.7487 2.71257 17.3388C3.08709 17.929 3.8691 18.1038 4.45925 17.7292L3.10301 15.5921ZM4.45925 17.7292L16.058 10.3685L14.7018 8.23137L3.10301 15.5921L4.45925 17.7292Z" fill="url(#paint0_linear_2593_4793)"/>
<path d="M12.0338 30.5368C11.4436 30.9114 11.2688 31.6934 11.6434 32.2835C12.0179 32.8737 12.7999 33.0485 13.39 32.674L12.0338 30.5368ZM13.39 32.674L24.9888 25.3132L23.6326 23.1761L12.0338 30.5368L13.39 32.674Z" fill="url(#paint1_linear_2593_4793)"/>
<path d="M8.89048 25.6278C8.30034 26.0023 8.12553 26.7843 8.50005 27.3745C8.87457 27.9646 9.65658 28.1394 10.2467 27.7649L8.89048 25.6278ZM10.2467 27.7649L21.8455 20.4041L20.4893 18.267L8.89048 25.6278L10.2467 27.7649Z" fill="url(#paint2_linear_2593_4793)"/>
<path d="M3.77525 22.0584C3.1851 22.433 3.0103 23.215 3.38481 23.8051C3.75933 24.3953 4.54134 24.5701 5.13149 24.1956L3.77525 22.0584ZM5.13149 24.1956L16.7303 16.8348L15.374 14.6977L3.77525 22.0584L5.13149 24.1956Z" fill="url(#paint3_linear_2593_4793)"/>
<path d="M28.5905 11.2302C25.5011 6.37004 19.0567 4.93386 14.1966 8.02297C9.33615 11.1124 7.90058 17.5571 10.9897 22.4172C14.0788 27.2777 20.5232 28.7135 25.3836 25.6241C30.2438 22.535 31.6796 16.0906 28.5905 11.2302ZM21.5632 15.7752C20.8256 14.6146 21.1686 13.0752 22.3294 12.3373C23.4903 11.5993 25.0294 11.9426 25.7674 13.1032C26.5053 14.2643 26.1623 15.8034 25.0015 16.5414C23.8406 17.279 22.3012 16.9363 21.5632 15.7752ZM14.5678 18.4511C15.0165 18.1658 15.6118 18.2984 15.8972 18.7471C16.1825 19.1961 16.0495 19.7914 15.6009 20.0764C15.1519 20.3618 14.5569 20.2291 14.2716 19.7804C13.9862 19.3315 14.1189 18.7365 14.5678 18.4511ZM17.6463 20.0752C17.9095 19.9079 18.2583 19.9857 18.4256 20.2488C18.5928 20.512 18.5151 20.8605 18.2519 21.0278C17.9884 21.1954 17.6399 21.1177 17.4727 20.8545C17.3054 20.5913 17.3828 20.2425 17.6463 20.0752ZM18.4025 10.7408C18.1396 10.9078 17.7908 10.8304 17.6235 10.5669C17.4563 10.3037 17.534 9.95517 17.7969 9.78791C18.0601 9.62064 18.4092 9.69805 18.5761 9.96125C18.7437 10.2247 18.6657 10.5735 18.4025 10.7408Z" fill="url(#paint4_radial_2593_4793)"/>
<path d="M18.2618 21.0287C17.9983 21.1963 17.6498 21.1185 17.4825 20.8554C17.3153 20.5922 17.3927 20.2434 17.6562 20.0761C17.9194 19.9088 18.2682 19.9865 18.4354 20.2497C18.6027 20.5129 18.525 20.8614 18.2618 21.0287Z" fill="white"/>
<path d="M15.59 20.0737C15.141 20.3591 14.546 20.2264 14.2606 19.7777C13.9753 19.3287 14.1079 18.7338 14.5569 18.4484C15.0056 18.163 15.6009 18.2957 15.8862 18.7444C16.1716 19.1934 16.0386 19.7887 15.59 20.0737Z" fill="white"/>
<path d="M18.3983 10.7378C18.1354 10.9048 17.7866 10.8274 17.6193 10.5639C17.4521 10.3007 17.5298 9.95219 17.7927 9.78493C18.0559 9.61766 18.405 9.69507 18.5719 9.95826C18.7395 10.2218 18.6615 10.5706 18.3983 10.7378Z" fill="white"/>
<path d="M25.0005 16.5426C23.8396 17.2803 22.3002 16.9376 21.5623 15.7764C20.8246 14.6159 21.1676 13.0765 22.3285 12.3385C23.4893 11.6006 25.0284 11.9439 25.7664 13.1044C26.5043 14.2656 26.1613 15.8047 25.0005 16.5426Z" fill="white"/>
<defs>
<linearGradient id="paint0_linear_2593_4793" x1="15.2496" y1="9.29993" x2="2.42048" y2="17.9313" gradientUnits="userSpaceOnUse">
<stop stop-color="#0163E4"/>
<stop offset="1" stop-color="#62A5FF"/>
</linearGradient>
<linearGradient id="paint1_linear_2593_4793" x1="22.5297" y1="24.9502" x2="11.3452" y2="32.8621" gradientUnits="userSpaceOnUse">
<stop stop-color="#0163E4"/>
<stop offset="1" stop-color="#79B2FF"/>
</linearGradient>
<linearGradient id="paint2_linear_2593_4793" x1="15.2891" y1="22.8252" x2="8.17807" y2="27.9186" gradientUnits="userSpaceOnUse">
<stop stop-color="#0163E4"/>
<stop offset="1" stop-color="#62A5FF"/>
</linearGradient>
<linearGradient id="paint3_linear_2593_4793" x1="9.35041" y1="19.8502" x2="3.05776" y2="24.3424" gradientUnits="userSpaceOnUse">
<stop stop-color="#0163E4"/>
<stop offset="1" stop-color="#62A5FF"/>
</linearGradient>
<radialGradient id="paint4_radial_2593_4793" cx="0" cy="0" r="1" gradientUnits="userSpaceOnUse" gradientTransform="translate(28.4716 11.5184) rotate(-32.4378) scale(23.4427 23.4427)">
<stop stop-color="white"/>
<stop offset="0.1648" stop-color="#66A8FB"/>
<stop offset="0.4218" stop-color="#2D7EE6"/>
<stop offset="0.857" stop-color="#0060D6"/>
</radialGradient>
</defs>
</svg>
