<svg width="40" height="40" viewBox="0 0 40 40" fill="none" xmlns="http://www.w3.org/2000/svg">
<path d="M3.65192 15.9905C2.95763 16.4311 2.75198 17.3511 3.19258 18.0454C3.63319 18.7397 4.55321 18.9453 5.2475 18.5047L3.65192 15.9905ZM5.2475 18.5047L18.8931 9.84501L17.2975 7.33077L3.65192 15.9905L5.2475 18.5047Z" fill="url(#paint0_linear_201_3303)"/>
<path d="M14.1519 33.5725C13.4576 34.0131 13.252 34.9331 13.6926 35.6274C14.1332 36.3217 15.0532 36.5274 15.7475 36.0868L14.1519 33.5725ZM15.7475 36.0868L29.3931 27.427L27.7975 24.9128L14.1519 33.5725L15.7475 36.0868Z" fill="url(#paint1_linear_201_3303)"/>
<path d="M10.4722 27.7971C9.77794 28.2377 9.57229 29.1578 10.0129 29.852C10.4535 30.5463 11.3735 30.752 12.0678 30.3114L10.4722 27.7971ZM12.0678 30.3114L25.7134 21.6517L24.1179 19.1374L10.4722 27.7971L12.0678 30.3114Z" fill="url(#paint2_linear_201_3303)"/>
<path d="M4.44098 23.5979C3.74669 24.0385 3.54104 24.9585 3.98165 25.6528C4.42225 26.3471 5.34227 26.5528 6.03656 26.1122L4.44098 23.5979ZM6.03656 26.1122L19.6822 17.4524L18.0866 14.9382L4.44098 23.5979L6.03656 26.1122Z" fill="url(#paint3_linear_201_3303)"/>
<path d="M33.6349 10.8588C30.0003 5.14097 22.4187 3.45134 16.7009 7.08558C10.9827 10.7202 9.29382 18.3022 12.9281 24.02C16.5623 29.7382 24.144 31.4274 29.8621 27.7928C35.5799 24.1586 37.2692 16.5769 33.6349 10.8588ZM25.3675 16.2058C24.4997 14.8405 24.9033 13.0294 26.269 12.1612C27.6347 11.293 29.4454 11.697 30.3136 13.0623C31.1818 14.4283 30.7782 16.239 29.4125 17.1072C28.0468 17.9751 26.2357 17.5719 25.3675 16.2058ZM17.1377 19.354C17.6655 19.0183 18.3658 19.1744 18.7016 19.7022C19.0373 20.2304 18.8808 20.9308 18.353 21.2661C17.8248 21.6018 17.1248 21.4458 16.7891 20.9179C16.4534 20.3897 16.6094 19.6897 17.1377 19.354ZM20.7594 21.2647C21.069 21.0679 21.4794 21.1593 21.6762 21.469C21.8729 21.7786 21.7815 22.1886 21.4719 22.3854C21.1619 22.5825 20.7519 22.4911 20.5551 22.1815C20.3583 21.8718 20.4494 21.4615 20.7594 21.2647ZM21.649 10.283C21.3397 10.4795 20.9294 10.3884 20.7326 10.0784C20.5358 9.76876 20.6272 9.35877 20.9365 9.16199C21.2462 8.9652 21.6569 9.05627 21.8533 9.36591C22.0504 9.67591 21.9587 10.0863 21.649 10.283Z" fill="url(#paint4_radial_201_3303)"/>
<path d="M21.4703 22.3866C21.1603 22.5837 20.7503 22.4923 20.5535 22.1826C20.3568 21.873 20.4478 21.4626 20.7578 21.2659C21.0675 21.0691 21.4778 21.1605 21.6746 21.4701C21.8714 21.7798 21.78 22.1898 21.4703 22.3866Z" fill="white"/>
<path d="M18.3468 21.2629C17.8186 21.5986 17.1186 21.4426 16.7829 20.9147C16.4472 20.3865 16.6033 19.6865 17.1315 19.3508C17.6593 19.0151 18.3597 19.1712 18.6954 19.699C19.0311 20.2272 18.8747 20.9276 18.3468 21.2629Z" fill="white"/>
<path d="M21.6496 10.2796C21.3403 10.476 20.9299 10.3849 20.7332 10.075C20.5364 9.76531 20.6278 9.35532 20.9371 9.15853C21.2467 8.96175 21.6574 9.05282 21.8539 9.36246C22.051 9.67246 21.9592 10.0828 21.6496 10.2796Z" fill="white"/>
<path d="M29.413 17.1087C28.0473 17.9765 26.2363 17.5733 25.3681 16.2073C24.5002 14.8419 24.9038 13.0309 26.2695 12.1627C27.6352 11.2945 29.4459 11.6984 30.3141 13.0637C31.1823 14.4298 30.7787 16.2405 29.413 17.1087Z" fill="white"/>
<defs>
<linearGradient id="paint0_linear_201_3303" x1="17.942" y1="8.58789" x2="2.84895" y2="18.7424" gradientUnits="userSpaceOnUse">
<stop stop-color="#0163E4"/>
<stop offset="1" stop-color="#62A5FF"/>
</linearGradient>
<linearGradient id="paint1_linear_201_3303" x1="26.5" y1="27" x2="13.3418" y2="36.3081" gradientUnits="userSpaceOnUse">
<stop stop-color="#0163E4"/>
<stop offset="1" stop-color="#79B2FF"/>
</linearGradient>
<linearGradient id="paint2_linear_201_3303" x1="18" y1="24.5" x2="9.6341" y2="30.4923" gradientUnits="userSpaceOnUse">
<stop stop-color="#0163E4"/>
<stop offset="1" stop-color="#62A5FF"/>
</linearGradient>
<linearGradient id="paint3_linear_201_3303" x1="11" y1="21" x2="3.59687" y2="26.2849" gradientUnits="userSpaceOnUse">
<stop stop-color="#0163E4"/>
<stop offset="1" stop-color="#62A5FF"/>
</linearGradient>
<radialGradient id="paint4_radial_201_3303" cx="0" cy="0" r="1" gradientUnits="userSpaceOnUse" gradientTransform="translate(33.4951 11.1979) rotate(-32.4378) scale(27.5797)">
<stop stop-color="white"/>
<stop offset="0.1648" stop-color="#66A8FB"/>
<stop offset="0.4218" stop-color="#2D7EE6"/>
<stop offset="0.857" stop-color="#0060D6"/>
</radialGradient>
</defs>
</svg>
