<svg width="41" height="41" viewBox="0 0 41 41" fill="none" xmlns="http://www.w3.org/2000/svg">
<path fill-rule="evenodd" clip-rule="evenodd" d="M5.7691 8.90139C8.49349 6.60716 11.9348 5.31665 15.586 5.31665C24.0233 5.31665 30.8867 12.1801 30.8867 20.6173C30.8867 29.0546 24.0233 35.918 15.586 35.918C7.87622 35.918 1.34851 30.1615 0.400737 22.5286C0.311556 21.8082 0.822162 21.1542 1.54086 21.065C2.25955 20.9776 2.91355 21.4847 3.00273 22.2051C3.78787 28.5265 9.1982 33.2951 15.586 33.2951C22.5771 33.2951 28.2637 27.6085 28.2637 20.6173C28.2637 13.6262 22.5771 7.93963 15.586 7.93963C12.6955 7.93963 9.95712 8.90488 7.75207 10.65H9.40279C10.1267 10.65 10.7143 11.2376 10.7143 11.9615C10.7143 12.6855 10.1267 13.273 9.40279 13.273H4.45761C3.73367 13.273 3.14612 12.6855 3.14612 11.9615V7.01459C3.14612 6.29065 3.73367 5.7031 4.45761 5.7031C5.18155 5.7031 5.7691 6.29065 5.7691 7.01459V8.90139ZM16.5656 19.3067C18.8703 19.3067 20.7186 21.2985 20.479 23.6521C20.2937 25.4742 18.7828 26.8364 17.0027 27.1162V27.6128C17.0027 28.3368 16.4152 28.9243 15.6912 28.9243C14.9673 28.9243 14.3797 28.3368 14.3797 27.6128V27.1757H13.5072C12.7832 27.1757 12.1957 26.5881 12.1957 25.8642C12.1957 25.1402 12.7832 24.5527 13.5072 24.5527H16.5656C17.2895 24.5527 17.877 23.9634 17.877 23.2412C17.877 22.519 17.2895 21.9297 16.5656 21.9297H15.0495C12.9913 21.9297 11.1115 20.4539 10.9034 18.4062C10.6796 16.2064 12.2866 14.3441 14.3797 14.108V13.6236C14.3797 12.8997 14.9673 12.3121 15.6912 12.3121C16.4152 12.3121 17.0027 12.8997 17.0027 13.6236V14.0608H17.884C18.608 14.0608 19.1955 14.6483 19.1955 15.3723C19.1955 16.0962 18.608 16.6838 17.884 16.6838H14.8169C14.093 16.6838 13.5054 17.2713 13.5054 17.9953C13.5054 18.7192 14.093 19.3067 14.8169 19.3067H16.5656Z" fill="url(#paint0_linear_2687_4502)"/>
<defs>
<linearGradient id="paint0_linear_2687_4502" x1="15.6387" y1="5.31665" x2="15.6387" y2="35.918" gradientUnits="userSpaceOnUse">
<stop stop-color="#77CCFF"/>
<stop offset="1" stop-color="#3E52FF"/>
</linearGradient>
</defs>
</svg>
