<svg width="34" height="34" viewBox="0 0 34 34" fill="none" xmlns="http://www.w3.org/2000/svg">
<path d="M23.5562 10.8202C24.2602 10.4143 24.9617 10.0099 25.6629 9.60496C26.5109 9.11565 27.3582 8.62573 28.2062 8.13673C28.4261 8.00976 28.6566 8.05734 28.7718 8.25133C28.8907 8.45088 28.819 8.68102 28.5926 8.81169C26.5782 9.97534 24.5635 11.1381 22.5488 12.3014C20.1239 13.7017 17.6996 15.1023 15.2747 16.5019C13.1232 17.7437 10.971 18.984 8.81948 20.2255C7.90326 20.7543 6.98735 21.2841 6.07144 21.8139C5.70569 22.0255 5.48266 21.9409 5.35972 21.5337C4.89018 19.983 4.76044 18.4057 5.00169 16.8016C5.60901 12.7598 8.30237 9.47676 12.13 8.12159C13.636 7.58842 15.1879 7.39319 16.7794 7.55629C19.3866 7.8238 21.6126 8.89633 23.4709 10.7399C23.4966 10.7661 23.5241 10.7902 23.5562 10.8202Z" fill="url(#paint0_radial_2593_4758)"/>
<path d="M7.68351 25.4153C6.60574 26.0374 5.56225 26.6398 4.51845 27.2422C4.00319 27.5393 3.48886 27.8377 2.97237 28.1334C2.82749 28.2162 2.67891 28.2143 2.54176 28.1142C2.41603 28.0225 2.36599 27.8933 2.38916 27.7398C2.4114 27.5912 2.50901 27.502 2.63381 27.4303C3.53273 26.9138 4.43072 26.3951 5.32871 25.8768C8.10919 24.2711 10.889 22.6648 13.6695 21.0597C16.4318 19.4651 19.1943 17.8718 21.9569 16.2775C23.0282 15.6594 24.0991 15.0406 25.1701 14.4216C25.4895 14.2372 25.7305 14.3292 25.838 14.6786C26.2822 16.1221 26.453 17.5993 26.2538 19.0957C25.7262 23.0574 23.6645 25.9454 20.0793 27.7166C18.5524 28.471 16.914 28.7981 15.2137 28.7444C12.3177 28.6529 9.83629 27.5724 7.77032 25.5404C7.73325 25.5043 7.70977 25.4539 7.68351 25.4153Z" fill="url(#paint1_radial_2593_4758)"/>
<circle cx="15.3412" cy="25.9496" r="1.30133" transform="rotate(-25.146 15.3412 25.9496)" fill="white"/>
<circle cx="22.1492" cy="21.2665" r="0.758449" transform="rotate(-25.146 22.1492 21.2665)" fill="white"/>
<circle cx="21.8224" cy="23.7597" r="0.425" transform="rotate(-25.146 21.8224 23.7597)" fill="white"/>
<path d="M31.6164 3.4C29.7387 3.4 28.2164 4.92234 28.2164 6.8C28.2164 4.92234 26.6941 3.4 24.8164 3.4C26.6941 3.4 28.2164 1.87766 28.2164 0C28.2164 1.87766 29.7387 3.4 31.6164 3.4Z" fill="#9B3BD0"/>
<path d="M26.3362 6.47246C25.3974 6.47246 24.6362 7.23327 24.6362 8.17246C24.6362 7.23372 23.8753 6.47246 22.9362 6.47246C23.8749 6.47246 24.6362 5.71165 24.6362 4.77246C24.6362 5.7112 25.3974 6.47246 26.3362 6.47246Z" fill="#9B3BD0"/>
<circle cx="7.98323" cy="18.8787" r="0.886018" transform="rotate(-25.146 7.98323 18.8787)" fill="white"/>
<defs>
<radialGradient id="paint0_radial_2593_4758" cx="0" cy="0" r="1" gradientUnits="userSpaceOnUse" gradientTransform="translate(16.8558 14.7134) scale(17.2228 17.2228)">
<stop stop-color="#F4E0FF"/>
<stop offset="0.1648" stop-color="#D690FA"/>
<stop offset="0.4218" stop-color="#B961E7"/>
<stop offset="0.857" stop-color="#9432CA"/>
</radialGradient>
<radialGradient id="paint1_radial_2593_4758" cx="0" cy="0" r="1" gradientUnits="userSpaceOnUse" gradientTransform="translate(14.3603 21.5393) scale(30.3134 30.3134)">
<stop stop-color="#F4E0FF"/>
<stop offset="0.205892" stop-color="#D48CFA"/>
<stop offset="0.409173" stop-color="#AE42EA"/>
<stop offset="0.857" stop-color="#A300FF"/>
</radialGradient>
</defs>
</svg>
