<svg width="34" height="34" viewBox="0 0 34 34" fill="none" xmlns="http://www.w3.org/2000/svg">
<path d="M27.688 14.6153C28.5123 14.6158 29.3336 14.6164 30.155 14.6163C31.148 14.6165 32.1408 14.6159 33.1336 14.6164C33.3912 14.6164 33.5695 14.7751 33.5723 15.0039C33.5756 15.2395 33.3959 15.4053 33.1308 15.4053C30.7711 15.4059 28.4117 15.4054 26.052 15.4056C23.2117 15.4058 20.3718 15.4066 17.5319 15.4063C15.0122 15.4059 12.4926 15.4039 9.97306 15.4033C8.90003 15.4032 7.8268 15.4041 6.75356 15.4049C6.32497 15.4053 6.17198 15.2179 6.27047 14.7979C6.64447 13.1976 7.33043 11.7462 8.35591 10.4595C10.9392 7.21713 14.9701 5.69917 19.0197 6.44999C20.6129 6.74537 22.0752 7.36096 23.3905 8.31137C25.545 9.8686 26.9564 11.9396 27.6539 14.5016C27.6631 14.5376 27.675 14.5727 27.688 14.6153Z" fill="url(#paint0_radial_2593_4817)"/>
<path d="M6.34361 19.3855C5.08134 19.3854 3.85923 19.3853 2.63684 19.3851C2.03352 19.3848 1.43038 19.3861 0.826759 19.3838C0.65751 19.383 0.52793 19.3061 0.458209 19.1486C0.394299 19.0042 0.415826 18.8654 0.51404 18.7423C0.608933 18.6231 0.739955 18.5942 0.885927 18.5945C1.9375 18.5967 2.98935 18.5965 4.04105 18.5966C7.29781 18.5963 10.5543 18.5951 13.8108 18.5953C17.0459 18.5955 20.2807 18.5969 23.5159 18.5975C24.7704 18.5978 26.025 18.5975 27.2797 18.5968C27.6538 18.5968 27.8188 18.7999 27.736 19.1613C27.3941 20.6546 26.795 22.0388 25.8611 23.2522C23.3884 26.4647 20.1128 27.956 16.0652 27.6936C14.3413 27.5819 12.7362 27.0383 11.2699 26.1288C8.77241 24.5798 7.14066 22.3721 6.35641 19.5394C6.34217 19.4888 6.34709 19.4327 6.34361 19.3855Z" fill="url(#paint1_radial_2593_4817)"/>
<defs>
<radialGradient id="paint0_radial_2593_4817" cx="0" cy="0" r="1" gradientUnits="userSpaceOnUse" gradientTransform="translate(19.8278 14.6371) rotate(30) scale(17.4693 17.4693)">
<stop stop-color="#D9DBFF"/>
<stop offset="0.208741" stop-color="#9A9EC2"/>
<stop offset="0.4218" stop-color="#797DA7"/>
<stop offset="0.857" stop-color="#676B92"/>
</radialGradient>
<radialGradient id="paint1_radial_2593_4817" cx="0" cy="0" r="1" gradientUnits="userSpaceOnUse" gradientTransform="translate(14.1744 19.3669) rotate(30) scale(30.7472 30.7472)">
<stop stop-color="#E9EBFF"/>
<stop offset="0.1648" stop-color="#A2A5CA"/>
<stop offset="0.178547" stop-color="#9DA0C5"/>
<stop offset="0.4218" stop-color="#54577F"/>
<stop offset="0.857" stop-color="#555881"/>
</radialGradient>
</defs>
</svg>
