<svg width="60" height="60" viewBox="0 0 60 60" fill="none" xmlns="http://www.w3.org/2000/svg">
<circle cx="30" cy="30" r="30" fill="#F23936"/>
<path d="M29.9998 43.6667C36.9665 43.6667 42.6665 37.9667 42.6665 31.0001C42.6665 24.0334 36.9665 18.3334 29.9998 18.3334C23.0332 18.3334 17.3332 24.0334 17.3332 31.0001C17.3332 37.9667 23.0332 43.6667 29.9998 43.6667ZM29.9998 15.1667C38.7082 15.1667 45.8332 22.2917 45.8332 31.0001C45.8332 39.7084 38.7082 46.8334 29.9998 46.8334C21.2915 46.8334 14.1665 39.7084 14.1665 31.0001C14.1665 22.2917 21.2915 15.1667 29.9998 15.1667ZM30.7915 23.0834V32.5834H22.0832V30.2084H28.4165V23.0834H30.7915Z" fill="white"/>
</svg>
