<svg width="30" height="31" viewBox="0 0 30 31" fill="none" xmlns="http://www.w3.org/2000/svg">
<path d="M21.25 19.525C21.25 20.75 20.25 21.75 19.025 21.75C17.8 21.75 16.8125 20.75 16.8125 19.525C16.8125 18.3 17.8 17.3125 19.025 17.3125C20.25 17.3125 21.25 18.3 21.25 19.525ZM11.0375 13.75C12.2625 13.75 13.25 12.7625 13.25 11.5375C13.25 10.3 12.2625 9.3125 11.0375 9.3125C9.8 9.3125 8.8125 10.3 8.8125 11.5375C8.8125 12.7625 9.8 13.75 11.0375 13.75ZM8.75 19.9125L10.625 21.7875L21.2875 11.125L19.4125 9.25L8.75 19.9125ZM27.5 15.5C27.5 22.375 21.875 28 15 28C8.125 28 2.5 22.375 2.5 15.5C2.5 8.625 8.125 3 15 3C21.875 3 27.5 8.625 27.5 15.5ZM25 15.5C25 9.9875 20.5125 5.5 15 5.5C9.4875 5.5 5 9.9875 5 15.5C5 21.0125 9.4875 25.5 15 25.5C20.5125 25.5 25 21.0125 25 15.5Z" fill="white"/>
</svg>
