<svg width="60" height="60" viewBox="0 0 60 60" fill="none" xmlns="http://www.w3.org/2000/svg">
<circle cx="30" cy="30" r="30" fill="#FABB18"/>
<path d="M37.9165 35.0983C37.9165 36.65 36.6498 37.9166 35.0982 37.9166C33.5465 37.9166 32.2957 36.65 32.2957 35.0983C32.2957 33.5466 33.5465 32.2958 35.0982 32.2958C36.6498 32.2958 37.9165 33.5466 37.9165 35.0983ZM24.9807 27.7833C26.5323 27.7833 27.7832 26.5325 27.7832 24.9808C27.7832 23.4133 26.5323 22.1625 24.9807 22.1625C23.4132 22.1625 22.1623 23.4133 22.1623 24.9808C22.1623 26.5325 23.4132 27.7833 24.9807 27.7833ZM22.0832 35.5891L24.4582 37.9641L37.964 24.4583L35.589 22.0833L22.0832 35.5891ZM45.8332 30C45.8332 38.7083 38.7082 45.8333 29.9998 45.8333C21.2915 45.8333 14.1665 38.7083 14.1665 30C14.1665 21.2916 21.2915 14.1666 29.9998 14.1666C38.7082 14.1666 45.8332 21.2916 45.8332 30ZM42.6665 30C42.6665 23.0175 36.9823 17.3333 29.9998 17.3333C23.0173 17.3333 17.3332 23.0175 17.3332 30C17.3332 36.9825 23.0173 42.6666 29.9998 42.6666C36.9823 42.6666 42.6665 36.9825 42.6665 30Z" fill="white"/>
</svg>
